<svg xmlns="http://www.w3.org/2000/svg" xmlns:xlink="http://www.w3.org/1999/xlink" width="200" zoomAndPan="magnify" viewBox="0 0 150 74.999997" height="100" preserveAspectRatio="xMidYMid meet" version="1.0"><defs><g/><clipPath id="5ab43faa59"><path d="M 8 21 L 43.589844 21 L 43.589844 48 L 8 48 Z M 8 21 " clip-rule="nonzero"/></clipPath><clipPath id="6d0f8a4348"><path d="M 7.5 20.65625 L 43.589844 20.65625 L 43.589844 48.140625 L 7.5 48.140625 Z M 7.5 20.65625 " clip-rule="nonzero"/></clipPath></defs><g clip-path="url(#5ab43faa59)"><path fill="#9b5c03" d="M 42.964844 26.8125 L 36.945312 21.125 L 36.917969 21.097656 L 14.214844 21.097656 L 14.183594 21.125 L 8.167969 26.8125 L 8.101562 26.875 L 8.160156 26.945312 L 25.492188 47.214844 L 25.566406 47.300781 L 25.640625 47.214844 L 42.972656 26.945312 L 43.035156 26.875 Z M 31.902344 23.09375 L 33.246094 23.09375 L 33.226562 23.175781 L 33.179688 23.390625 L 33.109375 23.609375 L 33.023438 23.808594 L 32.992188 23.886719 L 32.957031 23.957031 L 32.9375 23.992188 L 32.921875 24.027344 L 32.90625 24.058594 L 32.886719 24.089844 L 32.871094 24.121094 L 32.859375 24.136719 L 32.851562 24.152344 L 32.804688 24.226562 L 32.746094 24.160156 L 31.855469 23.195312 L 31.753906 23.085938 L 31.902344 23.085938 Z M 14.890625 24.917969 L 14.34375 25.585938 L 13.820312 26.339844 L 13.398438 27.144531 L 13.304688 27.320312 L 13.21875 27.496094 L 13.0625 27.847656 L 12.988281 28.027344 L 12.917969 28.210938 L 12.847656 28.402344 L 12.785156 28.59375 L 12.730469 28.785156 L 12.722656 28.824219 L 12.699219 28.894531 L 12.6875 28.933594 L 12.679688 28.972656 L 12.671875 29.007812 L 12.640625 29.132812 L 12.558594 29.035156 L 10.851562 27.046875 L 10.8125 27.003906 L 10.855469 26.960938 L 14.957031 23.113281 L 14.976562 23.09375 L 16.59375 23.09375 L 16.476562 23.203125 L 15.996094 23.667969 L 15.4375 24.25 Z M 29.238281 39.902344 L 25.617188 44.121094 L 25.566406 44.179688 L 25.515625 44.121094 L 21.710938 39.691406 L 21.582031 39.542969 L 21.773438 39.585938 L 22.175781 39.679688 L 22.636719 39.769531 L 23.644531 39.925781 L 24.199219 39.992188 L 24.792969 40.035156 L 25.734375 40.097656 L 26.769531 40.097656 L 27.863281 39.988281 L 28.074219 39.96875 L 28.292969 39.941406 L 28.730469 39.878906 L 28.945312 39.84375 L 29.164062 39.804688 L 29.183594 39.804688 L 29.367188 39.769531 Z M 32.6875 35.21875 L 32.6875 35.261719 L 32.679688 35.285156 L 32.675781 35.304688 L 32.667969 35.328125 L 32.667969 35.335938 L 32.621094 35.460938 L 32.539062 35.585938 L 32.429688 35.710938 L 32.289062 35.851562 C 31.914062 36.175781 31.492188 36.425781 31.027344 36.605469 L 30.945312 36.636719 L 30.859375 36.667969 L 30.703125 36.714844 L 30.625 36.734375 L 30.554688 36.75 L 30.136719 36.835938 L 29.710938 36.890625 L 28.835938 36.953125 L 28.390625 36.960938 L 27.492188 36.960938 L 27.039062 36.953125 L 26.59375 36.9375 L 26.316406 36.933594 L 26.046875 36.925781 L 25.777344 36.921875 L 25.332031 36.921875 L 25.164062 36.753906 L 25.023438 36.625 L 24.914062 36.503906 C 24.570312 36.140625 24.273438 35.828125 23.917969 35.605469 L 23.566406 35.390625 L 23.148438 35.253906 L 22.554688 35.234375 L 22.382812 35.226562 L 22.03125 35.210938 L 21.992188 35.210938 L 21.320312 35.179688 L 20.652344 35.179688 L 20.320312 35.195312 L 19.992188 35.238281 L 19.78125 35.265625 L 19.519531 35.386719 L 19.257812 35.566406 L 19.207031 35.597656 L 19.054688 35.714844 L 18.953125 35.800781 L 18.8125 35.929688 L 18.753906 35.988281 L 18.726562 36.019531 L 18.691406 36.050781 L 18.644531 36.105469 L 18.597656 36.050781 L 15.875 32.882812 L 15.730469 32.71875 L 15.941406 32.78125 L 15.949219 32.78125 C 17.234375 33.117188 18.535156 33.332031 19.859375 33.4375 L 21.1875 33.542969 L 22.554688 33.589844 L 23.902344 33.628906 L 24.5 33.648438 L 25.089844 33.667969 L 25.675781 33.691406 L 26.265625 33.71875 L 26.847656 33.75 L 27.417969 33.792969 L 27.425781 33.792969 L 27.816406 33.820312 L 27.957031 33.828125 L 28.09375 33.839844 L 28.234375 33.847656 L 28.835938 33.882812 L 29.46875 33.925781 L 30.085938 34.003906 L 30.695312 34.082031 L 31.292969 34.195312 L 31.824219 34.386719 L 31.875 34.402344 L 31.90625 34.417969 C 32.113281 34.484375 32.304688 34.589844 32.472656 34.726562 L 32.5 34.75 L 32.523438 34.773438 L 32.601562 34.867188 C 32.671875 34.964844 32.699219 35.074219 32.6875 35.195312 Z M 40.28125 27.046875 L 36.644531 31.28125 L 36.589844 31.347656 L 36.542969 31.277344 L 36.453125 31.148438 L 36.363281 31.03125 L 36.28125 30.921875 L 36.25 30.882812 L 36.234375 30.859375 L 36.199219 30.824219 L 36.1875 30.804688 C 36.164062 30.78125 36.144531 30.757812 36.125 30.738281 L 36.101562 30.714844 L 36.082031 30.691406 L 36.058594 30.671875 L 36.039062 30.65625 L 36.03125 30.644531 L 36.019531 30.636719 L 35.03125 29.761719 L 33.910156 29.125 L 32.710938 28.703125 L 32.476562 28.621094 L 32.238281 28.546875 L 32 28.480469 C 31.761719 28.417969 31.519531 28.359375 31.273438 28.308594 L 31.265625 28.308594 L 31.019531 28.261719 L 30.769531 28.21875 L 30.523438 28.183594 L 30.480469 28.179688 L 30.433594 28.171875 L 30.375 28.164062 L 30.324219 28.160156 L 30.273438 28.152344 L 30.230469 28.152344 L 29.984375 28.125 L 29.734375 28.105469 L 29.484375 28.09375 L 29.148438 28.09375 L 28.738281 28.085938 L 26.652344 28.085938 L 25.402344 28.101562 L 24.15625 28.113281 L 22.910156 28.027344 L 22.277344 27.980469 L 21.289062 27.832031 L 20.421875 27.523438 L 20.253906 27.460938 L 20.085938 27.394531 L 19.929688 27.324219 L 19.773438 27.25 L 19.621094 27.167969 L 19.484375 27.082031 L 19.480469 27.082031 L 19.289062 26.964844 L 19.125 26.832031 L 18.988281 26.6875 L 18.964844 26.660156 L 18.9375 26.628906 L 18.914062 26.601562 C 18.890625 26.570312 18.871094 26.539062 18.847656 26.507812 C 18.746094 26.359375 18.679688 26.195312 18.65625 26.015625 L 18.65625 25.902344 C 18.65625 25.867188 18.65625 25.828125 18.65625 25.792969 L 18.65625 25.726562 C 18.675781 25.546875 18.722656 25.378906 18.800781 25.214844 L 18.839844 25.136719 L 18.863281 25.09375 L 18.886719 25.054688 L 18.914062 25.011719 L 18.9375 24.972656 L 18.9375 24.964844 L 19.347656 24.324219 L 20.042969 23.871094 L 20.886719 23.570312 L 21.050781 23.511719 L 21.21875 23.460938 L 21.398438 23.414062 L 21.570312 23.367188 L 21.75 23.324219 L 21.933594 23.289062 C 22.113281 23.25 22.300781 23.21875 22.492188 23.195312 L 22.527344 23.1875 L 22.5625 23.1875 L 22.605469 23.179688 L 22.65625 23.179688 L 22.691406 23.175781 L 22.722656 23.175781 L 22.914062 23.15625 L 23.109375 23.136719 L 23.304688 23.121094 L 23.421875 23.113281 L 23.53125 23.109375 L 24.910156 23.109375 L 25.738281 23.148438 L 26.550781 23.257812 L 27.277344 23.410156 L 27.417969 23.441406 L 27.554688 23.472656 L 27.6875 23.503906 L 27.820312 23.539062 L 28.078125 23.609375 L 28.085938 23.609375 L 28.148438 23.628906 C 28.253906 23.660156 28.351562 23.691406 28.445312 23.722656 L 28.578125 23.769531 L 28.6875 23.808594 L 28.796875 23.851562 L 28.898438 23.894531 L 28.953125 23.917969 L 28.960938 23.917969 L 29.015625 23.945312 L 29.34375 24.089844 L 29.644531 24.269531 L 29.917969 24.480469 L 30.195312 24.6875 L 30.441406 24.933594 L 30.660156 25.210938 L 30.878906 25.492188 L 31.070312 25.8125 L 31.234375 26.167969 L 31.394531 26.527344 L 31.527344 26.925781 L 31.628906 27.367188 L 31.648438 27.445312 L 37.671875 27.445312 L 37.671875 24.535156 L 37.78125 24.640625 L 40.253906 26.960938 L 40.296875 27 Z M 40.28125 27.046875 " fill-opacity="1" fill-rule="nonzero"/></g><g clip-path="url(#6d0f8a4348)"><path stroke-linecap="butt" transform="matrix(0.109179, 0, 0, 0.109179, -1.725604, 6.905225)" fill="none" stroke-linejoin="miter" d="M 409.33278 182.336508 L 354.198146 130.243045 L 353.947697 129.992595 L 146.003186 129.992595 L 145.716958 130.243045 L 90.618103 182.336508 L 90.009869 182.908964 L 90.546546 183.552976 L 249.29565 369.207496 L 249.975441 369.994622 L 250.655232 369.207496 L 409.404337 183.552976 L 409.976793 182.908964 Z M 308.008132 148.275397 L 320.315928 148.275397 L 320.137036 149.026745 L 319.707694 150.994562 L 319.063681 152.998156 L 318.276555 154.822859 L 317.990327 155.538428 L 317.668321 156.182441 L 317.489428 156.504447 L 317.346314 156.826454 L 317.203201 157.112681 L 317.024308 157.398909 L 316.881194 157.685137 L 316.773859 157.828251 L 316.702302 157.971365 L 316.27296 158.651156 L 315.736283 158.042922 L 307.57879 149.205638 L 306.64855 148.20384 L 308.008132 148.20384 Z M 152.192862 164.983946 L 147.183876 171.102066 L 142.38956 178.007312 L 138.525484 185.377679 L 137.666801 186.98771 L 136.879674 188.597742 L 135.448535 191.817805 L 134.768744 193.463614 L 134.124731 195.145203 L 133.480719 196.898348 L 132.908263 198.651494 L 132.407364 200.404639 L 132.335808 200.762424 L 132.121137 201.406436 L 132.013801 201.764221 L 131.942244 202.122006 L 131.870687 202.444012 L 131.584459 203.588924 L 130.833111 202.694462 L 115.197917 184.483217 L 114.840132 184.089653 L 115.233695 183.69609 L 152.801097 148.45429 L 152.979989 148.275397 L 167.792279 148.275397 L 166.718924 149.277195 L 162.318172 153.534834 L 157.201849 158.865827 Z M 283.60721 302.230186 L 250.440562 340.870942 L 249.975441 341.407619 L 249.510321 340.870942 L 214.662084 300.298148 L 213.481394 298.938566 L 215.23454 299.332129 L 218.919723 300.190813 L 223.141583 301.013718 L 232.37243 302.444857 L 237.452974 303.053091 L 242.891303 303.446654 L 251.513916 304.01911 L 260.995212 304.01911 L 271.013186 303.017312 L 272.945224 302.83842 L 274.948819 302.587971 L 278.956008 302.015515 L 280.923824 301.693509 L 282.927419 301.335724 L 283.106312 301.335724 L 284.7879 301.013718 Z M 315.199606 259.331791 L 315.199606 259.725355 L 315.128049 259.940026 L 315.09227 260.118918 L 315.020713 260.333589 L 315.020713 260.405146 L 314.591372 261.550057 L 313.840024 262.694968 L 312.838226 263.83988 L 311.550201 265.127905 C 308.115467 268.097518 304.251392 270.387341 299.993753 272.033151 L 299.242405 272.319379 L 298.455278 272.605607 L 297.024139 273.034948 L 296.30857 273.213841 L 295.664557 273.356955 L 291.83626 274.144081 L 287.936406 274.64498 L 279.922027 275.217435 L 275.843281 275.288992 L 267.614231 275.288992 L 263.463927 275.217435 L 259.385181 275.074322 L 256.844909 275.038543 L 254.376194 274.966986 L 251.907479 274.931208 L 247.828733 274.931208 L 246.290258 273.392733 L 245.002233 272.212043 L 244.000436 271.102911 C 240.85193 267.775512 238.132765 264.913234 234.876924 262.873861 L 231.656861 260.906044 L 227.828564 259.653798 L 222.390235 259.474905 L 220.815982 259.403348 L 217.595919 259.260235 L 217.238135 259.260235 L 211.084236 258.974007 L 204.966117 258.974007 L 201.924946 259.117121 L 198.919554 259.510684 L 196.987516 259.761133 L 194.590358 260.870266 L 192.1932 262.516076 L 191.72808 262.802304 L 190.332719 263.875658 L 189.402479 264.662785 L 188.114454 265.843474 L 187.577777 266.380152 L 187.327327 266.666379 L 187.005321 266.952607 L 186.575979 267.453506 L 186.146638 266.952607 L 161.209039 237.936262 L 159.885235 236.433566 L 161.817273 237.006022 L 161.88883 237.006022 C 173.659949 240.082971 185.574182 242.050787 197.703086 243.016806 L 209.867768 243.982825 L 222.390235 244.412166 L 234.73381 244.769951 L 240.207917 244.948844 L 245.610467 245.127736 L 250.977239 245.342407 L 256.379789 245.592856 L 261.710782 245.879084 L 266.93444 246.272647 L 267.005997 246.272647 L 270.583844 246.523097 L 271.87187 246.594653 L 273.124116 246.701989 L 274.412142 246.773546 L 279.922027 247.095552 L 285.71814 247.489115 L 291.37114 248.204685 L 296.952582 248.920255 L 302.426689 249.95783 L 307.292562 251.710976 L 307.757682 251.85409 L 308.04391 251.997204 C 309.94017 252.605438 311.693315 253.571457 313.23179 254.823703 L 313.482239 255.038374 L 313.69691 255.253045 L 314.412479 256.111729 C 315.056492 257.00619 315.306941 258.007988 315.199606 259.117121 Z M 384.752966 184.483217 L 351.443203 223.267086 L 350.942305 223.87532 L 350.512963 223.231308 L 349.690058 222.050618 L 348.867153 220.977264 L 348.115805 219.975466 L 347.829577 219.617681 L 347.686463 219.403011 L 347.364457 219.081004 L 347.257122 218.902112 C 347.042451 218.687441 346.863558 218.47277 346.684666 218.293878 L 346.469995 218.079207 L 346.291103 217.864536 L 346.076432 217.685644 L 345.897539 217.54253 L 345.825983 217.435194 L 345.718647 217.363637 L 336.666692 209.349258 L 326.398269 203.517367 L 315.414277 199.653291 L 313.267568 198.901943 L 311.085081 198.222152 L 308.902594 197.613918 C 306.720107 197.041462 304.501841 196.504785 302.247797 196.039665 L 302.17624 196.039665 L 299.922196 195.610323 L 297.632373 195.21676 L 295.378329 194.894754 L 294.984766 194.858975 L 294.555424 194.787418 L 294.018747 194.715861 L 293.553627 194.680083 L 293.088507 194.608526 L 292.694943 194.608526 L 290.440899 194.358076 L 288.151077 194.179184 L 285.861254 194.071849 L 282.784305 194.071849 L 279.027565 194.000292 L 259.921858 194.000292 L 248.472745 194.143406 L 237.059411 194.250741 L 225.646077 193.463614 L 219.849963 193.034273 L 210.798009 191.674691 L 202.855187 188.848191 L 201.316712 188.275735 L 199.778238 187.667501 L 198.347098 187.023489 L 196.915959 186.343697 L 195.520599 185.592349 L 194.268352 184.805223 L 194.232574 184.805223 L 192.479428 183.731869 L 190.976732 182.5154 L 189.724485 181.191597 L 189.509814 180.941147 L 189.259365 180.65492 L 189.044694 180.40447 C 188.830023 180.118242 188.651131 179.832015 188.43646 179.545787 C 187.50622 178.186205 186.897986 176.683509 186.683315 175.037699 L 186.683315 174.000123 C 186.683315 173.678116 186.683315 173.320332 186.683315 172.998325 L 186.683315 172.390091 C 186.862207 170.744281 187.291549 169.205807 188.007118 167.703111 L 188.364903 166.987541 L 188.579574 166.593978 L 188.794245 166.236193 L 189.044694 165.84263 L 189.259365 165.484845 L 189.259365 165.413288 L 193.016105 159.545618 L 199.384674 155.395314 L 207.112825 152.640372 L 208.615521 152.103695 L 210.153996 151.638574 L 211.799806 151.209233 L 213.374059 150.779891 L 215.019869 150.386328 L 216.701457 150.064321 C 218.347267 149.706537 220.064634 149.420309 221.81778 149.205638 L 222.139786 149.134081 L 222.461792 149.134081 L 222.855355 149.062524 L 223.320476 149.062524 L 223.642482 149.026745 L 223.92871 149.026745 L 225.681855 148.847853 L 227.470779 148.668961 L 229.259703 148.525847 L 230.333057 148.45429 L 231.334855 148.418511 L 243.964657 148.418511 L 251.549694 148.776296 L 258.991618 149.778093 L 265.646415 151.173454 L 266.93444 151.459682 L 268.186686 151.74591 L 269.403155 152.032138 L 270.619623 152.354144 L 272.981002 152.998156 L 273.052559 152.998156 L 273.625015 153.177049 C 274.591034 153.463277 275.485496 153.749504 276.344179 154.035732 L 277.560648 154.465074 L 278.562445 154.822859 L 279.564242 155.216422 L 280.494483 155.609985 L 280.995381 155.824656 L 281.066938 155.824656 L 281.567837 156.075106 L 284.573229 157.398909 L 287.328172 159.044719 L 289.832665 160.976757 L 292.372937 162.873016 L 294.626981 165.12706 L 296.630576 167.667332 L 298.634171 170.243383 L 300.387316 173.177218 L 301.890012 176.433059 L 303.35693 179.724679 L 304.573398 183.374084 L 305.503638 187.417052 L 305.682531 188.132621 L 360.852943 188.132621 L 360.852943 161.477656 L 361.85474 162.443675 L 384.502517 183.69609 L 384.89608 184.053875 Z M 384.752966 184.483217 " stroke="#ffffff" stroke-width="8" stroke-opacity="1" stroke-miterlimit="10"/></g><g fill="#2f4346" fill-opacity="1"><g transform="translate(39.212109, 47.520045)"><g><path d="M 6.5 0.078125 L 1.78125 -11.234375 C 1.53125 -11.835938 1.101562 -12.238281 0.5 -12.4375 L 0.140625 -12.546875 L 0.140625 -12.8125 L 7.03125 -12.8125 L 7.03125 -12.546875 L 6.546875 -12.4375 C 5.859375 -12.257812 5.644531 -11.796875 5.90625 -11.046875 L 8.703125 -3.625 L 11.3125 -11 C 11.457031 -11.351562 11.492188 -11.644531 11.421875 -11.875 C 11.347656 -12.101562 11.132812 -12.269531 10.78125 -12.375 L 10.125 -12.546875 L 10.125 -12.8125 L 13.984375 -12.8125 L 13.984375 -12.546875 L 13.203125 -12.359375 C 12.867188 -12.265625 12.609375 -12.128906 12.421875 -11.953125 C 12.234375 -11.773438 12.078125 -11.507812 11.953125 -11.15625 L 8.046875 0.078125 Z M 6.5 0.078125 "/></g></g></g><g fill="#2f4346" fill-opacity="1"><g transform="translate(53.323873, 47.520045)"><g><path d="M 3.734375 -14.59375 C 3.128906 -14.59375 2.617188 -14.78125 2.203125 -15.15625 C 1.785156 -15.539062 1.578125 -16.023438 1.578125 -16.609375 C 1.578125 -17.210938 1.785156 -17.703125 2.203125 -18.078125 C 2.617188 -18.453125 3.128906 -18.640625 3.734375 -18.640625 C 4.328125 -18.640625 4.828125 -18.453125 5.234375 -18.078125 C 5.648438 -17.703125 5.859375 -17.210938 5.859375 -16.609375 C 5.859375 -16.023438 5.648438 -15.539062 5.234375 -15.15625 C 4.828125 -14.78125 4.328125 -14.59375 3.734375 -14.59375 Z M 0.578125 0 L 0.578125 -0.265625 L 0.953125 -0.375 C 1.304688 -0.476562 1.550781 -0.632812 1.6875 -0.84375 C 1.820312 -1.0625 1.890625 -1.347656 1.890625 -1.703125 L 1.890625 -10.03125 C 1.890625 -10.40625 1.820312 -10.6875 1.6875 -10.875 C 1.550781 -11.0625 1.304688 -11.191406 0.953125 -11.265625 L 0.578125 -11.34375 L 0.578125 -11.609375 L 5.453125 -13.171875 L 5.71875 -12.90625 L 5.640625 -9.125 L 5.640625 -1.671875 C 5.640625 -1.316406 5.707031 -1.03125 5.84375 -0.8125 C 5.976562 -0.601562 6.210938 -0.445312 6.546875 -0.34375 L 6.8125 -0.265625 L 6.8125 0 Z M 0.578125 0 "/></g></g></g><g fill="#2f4346" fill-opacity="1"><g transform="translate(60.779147, 47.520045)"><g><path d="M 5.140625 0.40625 C 4.265625 0.40625 3.476562 0.300781 2.78125 0.09375 C 2.09375 -0.113281 1.457031 -0.367188 0.875 -0.671875 L 0.90625 -3.828125 L 1.171875 -3.828125 L 2.078125 -2.234375 C 2.460938 -1.523438 2.890625 -1 3.359375 -0.65625 C 3.835938 -0.3125 4.441406 -0.140625 5.171875 -0.140625 C 6.015625 -0.140625 6.695312 -0.328125 7.21875 -0.703125 C 7.75 -1.085938 8.015625 -1.597656 8.015625 -2.234375 C 8.015625 -2.816406 7.828125 -3.296875 7.453125 -3.671875 C 7.078125 -4.046875 6.382812 -4.382812 5.375 -4.6875 L 4.265625 -5.03125 C 3.179688 -5.351562 2.328125 -5.847656 1.703125 -6.515625 C 1.078125 -7.191406 0.765625 -8.019531 0.765625 -9 C 0.765625 -10.164062 1.226562 -11.15625 2.15625 -11.96875 C 3.082031 -12.789062 4.40625 -13.203125 6.125 -13.203125 C 6.8125 -13.203125 7.460938 -13.125 8.078125 -12.96875 C 8.691406 -12.820312 9.28125 -12.597656 9.84375 -12.296875 L 9.6875 -9.421875 L 9.421875 -9.421875 L 8.5 -11.078125 C 8.15625 -11.660156 7.816406 -12.070312 7.484375 -12.3125 C 7.160156 -12.550781 6.671875 -12.671875 6.015625 -12.671875 C 5.410156 -12.671875 4.84375 -12.5 4.3125 -12.15625 C 3.78125 -11.820312 3.515625 -11.347656 3.515625 -10.734375 C 3.515625 -10.128906 3.738281 -9.648438 4.1875 -9.296875 C 4.644531 -8.941406 5.316406 -8.613281 6.203125 -8.3125 L 7.40625 -7.953125 C 8.675781 -7.566406 9.585938 -7.03125 10.140625 -6.34375 C 10.691406 -5.664062 10.96875 -4.847656 10.96875 -3.890625 C 10.96875 -2.585938 10.457031 -1.546875 9.4375 -0.765625 C 8.414062 0.015625 6.984375 0.40625 5.140625 0.40625 Z M 5.140625 0.40625 "/></g></g></g><g fill="#2f4346" fill-opacity="1"><g transform="translate(72.38807, 47.520045)"><g><path d="M 5.359375 0.40625 C 4.660156 0.40625 4.019531 0.269531 3.4375 0 C 2.863281 -0.269531 2.410156 -0.703125 2.078125 -1.296875 C 1.753906 -1.890625 1.601562 -2.671875 1.625 -3.640625 L 1.703125 -10.484375 C 1.703125 -10.898438 1.628906 -11.195312 1.484375 -11.375 C 1.347656 -11.550781 1.128906 -11.671875 0.828125 -11.734375 L 0.5 -11.84375 L 0.5 -12.109375 L 5.265625 -13.046875 L 5.53125 -12.78125 L 5.40625 -9 L 5.40625 -2.578125 C 5.40625 -2.015625 5.566406 -1.597656 5.890625 -1.328125 C 6.222656 -1.066406 6.640625 -0.9375 7.140625 -0.9375 C 7.628906 -0.9375 8.066406 -1.003906 8.453125 -1.140625 C 8.847656 -1.285156 9.242188 -1.5 9.640625 -1.78125 L 9.75 -10.46875 C 9.75 -10.875 9.6875 -11.160156 9.5625 -11.328125 C 9.4375 -11.492188 9.203125 -11.613281 8.859375 -11.6875 L 8.59375 -11.765625 L 8.59375 -12.03125 L 13.265625 -13.046875 L 13.53125 -12.78125 L 13.453125 -9 L 13.453125 -1.78125 C 13.453125 -1.394531 13.503906 -1.09375 13.609375 -0.875 C 13.710938 -0.664062 13.941406 -0.488281 14.296875 -0.34375 L 14.5625 -0.265625 L 14.5625 0 L 9.90625 0.265625 L 9.671875 -1.296875 C 9.078125 -0.816406 8.4375 -0.410156 7.75 -0.078125 C 7.070312 0.242188 6.273438 0.40625 5.359375 0.40625 Z M 5.359375 0.40625 "/></g></g></g><g fill="#2f4346" fill-opacity="1"><g transform="translate(87.484998, 47.520045)"><g><path d="M 4.421875 0.40625 C 3.390625 0.40625 2.519531 0.113281 1.8125 -0.46875 C 1.113281 -1.0625 0.765625 -1.910156 0.765625 -3.015625 C 0.765625 -3.847656 1.191406 -4.613281 2.046875 -5.3125 C 2.898438 -6.007812 4.242188 -6.535156 6.078125 -6.890625 C 6.359375 -6.941406 6.675781 -7 7.03125 -7.0625 C 7.382812 -7.125 7.753906 -7.191406 8.140625 -7.265625 L 8.140625 -9.375 C 8.140625 -10.582031 7.992188 -11.425781 7.703125 -11.90625 C 7.410156 -12.394531 6.957031 -12.640625 6.34375 -12.640625 C 5.914062 -12.640625 5.578125 -12.503906 5.328125 -12.234375 C 5.078125 -11.960938 4.914062 -11.488281 4.84375 -10.8125 L 4.796875 -10.515625 C 4.753906 -9.753906 4.566406 -9.195312 4.234375 -8.84375 C 3.898438 -8.488281 3.484375 -8.3125 2.984375 -8.3125 C 2.523438 -8.3125 2.144531 -8.453125 1.84375 -8.734375 C 1.539062 -9.015625 1.390625 -9.394531 1.390625 -9.875 C 1.390625 -10.601562 1.640625 -11.210938 2.140625 -11.703125 C 2.648438 -12.203125 3.320312 -12.578125 4.15625 -12.828125 C 4.988281 -13.078125 5.894531 -13.203125 6.875 -13.203125 C 8.445312 -13.203125 9.664062 -12.816406 10.53125 -12.046875 C 11.394531 -11.273438 11.828125 -10.019531 11.828125 -8.28125 L 11.828125 -2.390625 C 11.828125 -1.597656 12.195312 -1.203125 12.9375 -1.203125 L 13.53125 -1.203125 L 13.765625 -0.984375 C 13.429688 -0.554688 13.0625 -0.226562 12.65625 0 C 12.257812 0.226562 11.695312 0.34375 10.96875 0.34375 C 10.1875 0.34375 9.566406 0.160156 9.109375 -0.203125 C 8.660156 -0.566406 8.367188 -1.050781 8.234375 -1.65625 C 7.691406 -1.082031 7.140625 -0.59375 6.578125 -0.1875 C 6.023438 0.207031 5.304688 0.40625 4.421875 0.40625 Z M 6.046875 -1.21875 C 6.398438 -1.21875 6.734375 -1.300781 7.046875 -1.46875 C 7.359375 -1.644531 7.722656 -1.910156 8.140625 -2.265625 L 8.140625 -6.734375 C 7.960938 -6.703125 7.785156 -6.664062 7.609375 -6.625 C 7.429688 -6.59375 7.226562 -6.554688 7 -6.515625 C 6.1875 -6.304688 5.535156 -5.945312 5.046875 -5.4375 C 4.554688 -4.9375 4.3125 -4.257812 4.3125 -3.40625 C 4.3125 -2.675781 4.476562 -2.128906 4.8125 -1.765625 C 5.15625 -1.398438 5.566406 -1.21875 6.046875 -1.21875 Z M 6.046875 -1.21875 "/></g></g></g><g fill="#2f4346" fill-opacity="1"><g transform="translate(101.277249, 47.520045)"><g><path d="M 0.609375 0 L 0.609375 -0.265625 L 0.9375 -0.375 C 1.570312 -0.582031 1.890625 -1.023438 1.890625 -1.703125 L 1.890625 -15.953125 C 1.890625 -16.304688 1.816406 -16.578125 1.671875 -16.765625 C 1.535156 -16.953125 1.289062 -17.085938 0.9375 -17.171875 L 0.578125 -17.25 L 0.578125 -17.515625 L 5.453125 -18.671875 L 5.78125 -18.421875 L 5.671875 -14.703125 L 5.671875 -5.59375 C 5.671875 -4.9375 5.675781 -4.28125 5.6875 -3.625 C 5.695312 -2.976562 5.703125 -2.335938 5.703125 -1.703125 C 5.703125 -1.347656 5.769531 -1.054688 5.90625 -0.828125 C 6.050781 -0.609375 6.289062 -0.445312 6.625 -0.34375 L 6.96875 -0.265625 L 6.96875 0 Z M 0.609375 0 "/></g></g></g><g fill="#2f4346" fill-opacity="1"><g transform="translate(108.892276, 47.520045)"><g><path d="M 3.734375 -14.59375 C 3.128906 -14.59375 2.617188 -14.78125 2.203125 -15.15625 C 1.785156 -15.539062 1.578125 -16.023438 1.578125 -16.609375 C 1.578125 -17.210938 1.785156 -17.703125 2.203125 -18.078125 C 2.617188 -18.453125 3.128906 -18.640625 3.734375 -18.640625 C 4.328125 -18.640625 4.828125 -18.453125 5.234375 -18.078125 C 5.648438 -17.703125 5.859375 -17.210938 5.859375 -16.609375 C 5.859375 -16.023438 5.648438 -15.539062 5.234375 -15.15625 C 4.828125 -14.78125 4.328125 -14.59375 3.734375 -14.59375 Z M 0.578125 0 L 0.578125 -0.265625 L 0.953125 -0.375 C 1.304688 -0.476562 1.550781 -0.632812 1.6875 -0.84375 C 1.820312 -1.0625 1.890625 -1.347656 1.890625 -1.703125 L 1.890625 -10.03125 C 1.890625 -10.40625 1.820312 -10.6875 1.6875 -10.875 C 1.550781 -11.0625 1.304688 -11.191406 0.953125 -11.265625 L 0.578125 -11.34375 L 0.578125 -11.609375 L 5.453125 -13.171875 L 5.71875 -12.90625 L 5.640625 -9.125 L 5.640625 -1.671875 C 5.640625 -1.316406 5.707031 -1.03125 5.84375 -0.8125 C 5.976562 -0.601562 6.210938 -0.445312 6.546875 -0.34375 L 6.8125 -0.265625 L 6.8125 0 Z M 0.578125 0 "/></g></g></g><g fill="#2f4346" fill-opacity="1"><g transform="translate(116.34755, 47.520045)"><g><path d="M 0.609375 0 L 0.609375 -0.421875 L 7.875 -12.28125 L 3.859375 -12.28125 C 3.398438 -12.28125 3.035156 -12.15625 2.765625 -11.90625 C 2.503906 -11.65625 2.257812 -11.328125 2.03125 -10.921875 L 1.0625 -9.125 L 0.796875 -9.125 L 0.984375 -12.8125 L 11.640625 -12.8125 L 11.640625 -12.4375 L 4.53125 -0.53125 L 8.703125 -0.53125 C 9.273438 -0.53125 9.691406 -0.660156 9.953125 -0.921875 C 10.222656 -1.191406 10.472656 -1.5625 10.703125 -2.03125 L 11.640625 -4 L 11.90625 -4 L 11.65625 0 Z M 0.609375 0 "/></g></g></g><g fill="#2f4346" fill-opacity="1"><g transform="translate(128.728625, 47.520045)"><g><path d="M 7.21875 -13.203125 C 8.375 -13.203125 9.359375 -12.96875 10.171875 -12.5 C 10.984375 -12.03125 11.609375 -11.390625 12.046875 -10.578125 C 12.484375 -9.773438 12.703125 -8.859375 12.703125 -7.828125 C 12.703125 -7.628906 12.691406 -7.425781 12.671875 -7.21875 C 12.648438 -7.019531 12.613281 -6.84375 12.5625 -6.6875 L 4.625 -6.6875 C 4.644531 -4.769531 4.988281 -3.390625 5.65625 -2.546875 C 6.320312 -1.703125 7.3125 -1.28125 8.625 -1.28125 C 9.507812 -1.28125 10.226562 -1.421875 10.78125 -1.703125 C 11.332031 -1.984375 11.847656 -2.398438 12.328125 -2.953125 L 12.59375 -2.71875 C 12.039062 -1.738281 11.304688 -0.972656 10.390625 -0.421875 C 9.484375 0.128906 8.390625 0.40625 7.109375 0.40625 C 5.847656 0.40625 4.726562 0.132812 3.75 -0.40625 C 2.78125 -0.945312 2.019531 -1.722656 1.46875 -2.734375 C 0.914062 -3.753906 0.640625 -4.960938 0.640625 -6.359375 C 0.640625 -7.816406 0.957031 -9.054688 1.59375 -10.078125 C 2.238281 -11.097656 3.0625 -11.875 4.0625 -12.40625 C 5.0625 -12.9375 6.113281 -13.203125 7.21875 -13.203125 Z M 7.140625 -12.671875 C 6.617188 -12.671875 6.175781 -12.515625 5.8125 -12.203125 C 5.445312 -11.890625 5.160156 -11.335938 4.953125 -10.546875 C 4.753906 -9.765625 4.644531 -8.65625 4.625 -7.21875 L 9.1875 -7.21875 C 9.363281 -9.15625 9.289062 -10.546875 8.96875 -11.390625 C 8.65625 -12.242188 8.046875 -12.671875 7.140625 -12.671875 Z M 7.140625 -12.671875 "/></g></g></g></svg>