<?xml version="1.0" encoding="UTF-8"?>
<svg version="1.1" xmlns="http://www.w3.org/2000/svg" width="512" height="512">
<path d="M0 0 C24.08814787 -0.07026099 48.17628025 -0.12307162 72.26451015 -0.15543652 C83.45054499 -0.17086739 94.63651595 -0.19188419 105.82250977 -0.22631836 C115.57878463 -0.25633692 125.3350132 -0.27560243 135.09133297 -0.28226548 C140.25126415 -0.28615674 145.41106295 -0.29522188 150.57095146 -0.31719017 C155.44071613 -0.33775269 160.31029553 -0.34379442 165.18009949 -0.33932304 C166.95484491 -0.3401395 168.72959739 -0.34598622 170.50430489 -0.35761642 C209.06253734 -0.59762382 245.05468006 14.54400705 272.515625 41.51953125 C280.37074596 49.35398084 287.01722201 57.67294684 293 67 C293.67933594 68.05574219 294.35867188 69.11148438 295.05859375 70.19921875 C314.16158304 101.66515627 319.57967837 141.04653338 311.37670898 176.77661133 C306.60559563 196.08224218 298.59742726 214.96502122 285.92285156 230.44750977 C284.49462569 232.19917536 284.49462569 232.19917536 283 235 C283.76822584 238.88768836 285.9932998 241.45110162 288.4375 244.5 C311.88815568 276.23740832 318.54488011 316.55323003 313 355 C306.29606181 393.05112297 284.53531815 428.14639228 252.87988281 450.46240234 C227.15037181 468.00727678 199.54828175 476.36169557 168.56347656 476.22705078 C166.72921759 476.22648563 164.89495817 476.22680525 163.06069946 476.22793579 C158.11524648 476.22850625 153.16989183 476.21680201 148.22446156 476.20278788 C143.04350606 476.19022898 137.86254796 476.18910597 132.68157959 476.18673706 C122.88590109 476.18053739 113.09026758 476.16414716 103.29460883 476.14403808 C92.1361453 476.12163183 80.97767954 476.11067379 69.81919909 476.10064721 C46.87944118 476.07977951 23.93972312 476.04463313 1 476 C3.96063178 472.96198405 6.85525929 470.6594683 10.4375 468.375 C32.7444096 453.7107725 53.71289487 435.17889192 70 414 C70.97787071 412.78411284 71.95714112 411.56935061 72.9375 410.35546875 C81.56323549 399.53122262 88.7207407 388.01201899 95.6940918 376.06860352 C97 374 97 374 99 372 C101.85519409 371.73498535 101.85519409 371.73498535 105.55419922 371.71289062 C106.22771927 371.70605759 106.90123932 371.69922455 107.59516907 371.69218445 C109.06127449 371.67857672 110.52742766 371.66953612 111.99358749 371.66447449 C114.3243524 371.65618002 116.65472642 371.63566254 118.98538208 371.61193848 C123.94852965 371.56364316 128.91171745 371.53084275 133.875 371.5 C139.59492981 371.46417813 145.31467392 371.42181721 151.03442764 371.36405945 C153.31186815 371.34423162 155.58916059 371.3357152 157.8666687 371.32775879 C172.52769555 371.22096889 185.72686563 370.14710523 196.875 359.625 C205.13577153 350.61324924 208.98310726 340.21344758 209 328 C208.02837517 315.36887718 202.34905735 305.43305329 193 297 C179.83673381 287.44824462 163.79948975 288.62630488 148.25 288.375 C146.28123424 288.33674006 144.31248378 288.29768393 142.34375 288.2578125 C137.56262695 288.16269568 132.78142595 288.0783527 128 288 C128.19698486 286.36369629 128.19698486 286.36369629 128.39794922 284.69433594 C132.10494609 253.69654555 133.39579325 223.82026613 128.3671875 192.875 C127.98528597 189.88479225 127.97549766 187.01118158 128 184 C129.20946289 183.98018066 130.41892578 183.96036133 131.66503906 183.93994141 C136.20526962 183.86315935 140.74520955 183.77456166 145.28515625 183.68261719 C147.24017548 183.64462439 149.19525758 183.60972311 151.15039062 183.578125 C176.24635316 183.51726442 176.24635316 183.51726442 197.875 171.875 C205.60594656 163.31236237 209.46047089 152.04864532 208.9375 140.625 C207.53893978 129.48366076 202.54323963 120.27469799 194 113 C182.15702918 105.11559125 169.48193871 104.71290436 155.70278549 105.09238815 C151.74905508 105.18987801 147.79452796 105.21403195 143.83984375 105.25 C138.84358219 105.29769433 133.85108353 105.36742727 128.85693359 105.52441406 C101.77402978 106.34015027 101.77402978 106.34015027 95.57583618 102.49685669 C91.99484411 98.85831179 90.20231572 94.71877264 88.66442871 89.90808105 C87.77389491 87.35068003 86.39171677 85.43370277 84.71484375 83.32421875 C84.25198975 82.71030273 83.78913574 82.09638672 83.31225586 81.46386719 C82.85858643 80.87766602 82.40491699 80.29146484 81.9375 79.6875 C81.43420166 79.02782227 80.93090332 78.36814453 80.41235352 77.68847656 C73.51148392 68.68896234 66.28393473 60.09281847 58.56640625 51.7890625 C56.42501785 49.46189155 54.35657371 47.09941385 52.3125 44.6875 C49.52191165 41.47569076 46.52211069 38.71137393 43.27734375 35.96484375 C41.09061952 34.07818459 38.97884084 32.12523271 36.87255859 30.1496582 C26.78631237 20.72278347 15.83418769 12.47463725 4.62182617 4.43945312 C3.0644418 3.31586264 1.52960299 2.1611272 0 1 C0 0.67 0 0.34 0 0 Z " fill="#F89D40" transform="translate(192,20)"/>
<path d="M0 0 C10.27125 -0.061875 20.5425 -0.12375 31.125 -0.1875 C34.31816895 -0.21481201 37.51133789 -0.24212402 40.80126953 -0.27026367 C56.43031994 -0.3482783 71.58137359 0.15208105 87 3 C88.68657715 3.29837769 88.68657715 3.29837769 90.40722656 3.6027832 C92.97749525 4.093791 95.51719725 4.64403786 98.0625 5.25 C98.95549805 5.45906982 99.84849609 5.66813965 100.76855469 5.88354492 C117.16298833 9.86130984 132.83341059 15.64270298 148 23 C148.76521973 23.36963867 149.53043945 23.73927734 150.31884766 24.12011719 C172.28341857 34.86805928 191.3267335 49.19223204 209 66 C209.56654297 66.53786133 210.13308594 67.07572266 210.71679688 67.62988281 C219.31479994 75.85261392 226.92461582 84.4428303 234 94 C234.41701172 94.55091309 234.83402344 95.10182617 235.26367188 95.66943359 C265.73238336 135.94184515 281.5431521 185.80460637 281.3125 236.125 C281.31034485 236.97717102 281.3081897 237.82934204 281.30596924 238.70733643 C281.12449084 283.59124454 268.46564906 327.83843444 243.640625 365.4375 C242.38706469 367.39544182 241.21363517 369.4049079 240.078125 371.43359375 C228.71280731 391.49354199 210.04355962 409.96048872 192 424 C191.0409375 424.77601563 190.081875 425.55203125 189.09375 426.3515625 C149.85388737 457.56508959 100.17229432 476.29211327 49.90234375 476.09765625 C48.63362427 476.09664917 47.36490479 476.09564209 46.05773926 476.09460449 C41.35098355 476.08940086 36.6442408 476.07543973 31.9375 476.0625 C21.398125 476.041875 10.85875 476.02125 0 476 C0 441.68 0 407.36 0 372 C14.85 371.67 29.7 371.34 45 371 C85.57013591 367.13617753 119.04936602 353.65978164 145.55224609 322.15478516 C168.81541907 293.22249961 177.79905905 257.0395638 174.78173828 220.34570312 C171.64898144 194.07238919 159.91153558 170.04864346 143 150 C142.48824219 149.36578125 141.97648438 148.7315625 141.44921875 148.078125 C123.91826257 126.71965548 96.40236661 113.09611498 69.75 107.625 C68.61848511 107.39151855 68.61848511 107.39151855 67.46411133 107.15332031 C45.84718407 103.12878214 21.06395093 104.4680878 0 104 C0 69.68 0 35.36 0 0 Z " fill="#F89D40" transform="translate(4,20)"/>
</svg>
