<?xml version="1.0" encoding="UTF-8"?>
<svg version="1.1" xmlns="http://www.w3.org/2000/svg" width="1200" height="1445">
<path d="M0 0 C0.82426483 0.00060425 1.64852966 0.0012085 2.49777222 0.00183105 C99.33748374 0.19286168 197.31686656 32.12499427 273.75 92.1875 C274.84707418 93.03070577 275.9447655 93.87310902 277.04296875 94.71484375 C283.40536599 99.61946974 289.60586175 104.68845343 295.6875 109.9375 C296.28989502 110.45602539 296.89229004 110.97455078 297.51293945 111.50878906 C301.22388336 114.74373394 304.73108866 118.12732317 308.18969727 121.62988281 C309.97093016 123.4080499 311.82768628 125.06347634 313.75 126.6875 C319.54708606 131.70270548 324.75541373 137.10171999 329.75 142.91015625 C331.66030868 145.08537102 333.6239437 147.20266764 335.6027832 149.31542969 C341.60760322 155.74939026 347.08549594 162.49507051 352.43554688 169.47900391 C353.66915389 171.08241807 354.91994228 172.6725719 356.171875 174.26171875 C419.54637541 255.13669395 447.47561121 350.21212403 442.7890625 475.72265625 C435.07193104 532.98745383 418.76763426 587.47109483 388.37890625 637 C387.93562988 637.72445312 387.49235352 638.44890625 387.03564453 639.1953125 C385.75 641.1875 385.75 641.1875 384.44482422 642.8671875 C383.10245538 644.51746025 383.10245538 644.51746025 381.75 647.1875 C382.05415433 650.06114311 382.05415433 650.06114311 383.75 653.1875 C384.12769531 653.97833984 384.50539063 654.76917969 384.89453125 655.58398438 C385.81350923 657.48835616 386.74438607 659.38701378 387.68457031 661.28100586 C411.73604699 709.77781527 426.60346532 765.1978527 426.98828125 819.5625 C426.9980751 820.71344147 427.00786896 821.86438293 427.01795959 823.05020142 C427.19328046 849.01798182 426.93580138 874.52434383 422.75 900.1875 C422.64345093 900.85106506 422.53690186 901.51463013 422.42712402 902.19830322 C410.90490681 973.44006458 380.33017125 1039.88759483 332.75 1094.1875 C332.12029297 1094.90623291 331.49058594 1095.62496582 330.84179688 1096.36547852 C325.10062485 1102.8333894 319.10778094 1109.01594586 312.99414062 1115.12866211 C311.3785932 1116.74640192 309.77124966 1118.37200636 308.1640625 1119.99804688 C301.68134108 1126.51562497 294.95703275 1132.46537324 287.75 1138.1875 C286.53651261 1139.21137036 285.32752433 1140.2406194 284.125 1141.27734375 C266.08042249 1156.61230963 245.40731191 1168.89970062 225.41943359 1181.50195312 C220.85473831 1184.38421545 216.30316272 1187.28706811 211.75 1190.1875 C209.91672696 1191.3542614 208.08339368 1192.52092816 206.25 1193.6875 C205.3425 1194.265 204.435 1194.8425 203.5 1195.4375 C78.375 1275.0625 78.375 1275.0625 -46.75 1354.6875 C-47.6572583 1355.26491943 -48.5645166 1355.84233887 -49.49926758 1356.43725586 C-51.33477438 1357.60515754 -53.1705497 1358.7726373 -55.0065918 1359.93969727 C-59.55895466 1362.83408836 -64.10658827 1365.73538856 -68.64453125 1368.65234375 C-97.78209522 1387.35449618 -127.01188474 1404.37869679 -159.25 1417.1875 C-160.18134766 1417.55858887 -161.11269531 1417.92967773 -162.07226562 1418.31201172 C-177.78118242 1424.48906765 -193.9180212 1428.97827576 -210.25 1433.1875 C-211.1977832 1433.43628906 -212.14556641 1433.68507813 -213.12207031 1433.94140625 C-299.09708466 1456.23948333 -394.2497463 1446.62996065 -539.25 1384.1875 C-556.95195866 1373.65037776 -574.15616797 1362.05390138 -590.25 1349.1875 C-591.15621094 1348.46304687 -592.06242188 1347.73859375 -592.99609375 1346.9921875 C-595.76784328 1344.74743244 -598.51361648 1342.47523527 -601.25 1340.1875 C-601.80333008 1339.72585449 -602.35666016 1339.26420898 -602.92675781 1338.78857422 C-609.92357719 1332.9334225 -616.63804451 1326.96636021 -623.01171875 1320.42578125 C-625.07961756 1318.35788244 -627.20711676 1316.45171564 -629.4375 1314.5625 C-632.8155722 1311.67282378 -635.67308373 1308.53267993 -638.54296875 1305.14453125 C-640.16260807 1303.28769075 -641.85123291 1301.58352508 -643.625 1299.875 C-647.33488557 1296.22282376 -650.55490824 1292.23907538 -653.8125 1288.18359375 C-655.87766652 1285.64515991 -657.99324184 1283.16432883 -660.14086914 1280.69580078 C-677.59859143 1260.51922719 -692.42245598 1237.5331728 -705.25 1214.1875 C-705.72646973 1213.32495605 -706.20293945 1212.46241211 -706.69384766 1211.57373047 C-727.88793934 1172.92157315 -742.04138202 1131.37352972 -750 1088.0625 C-750.18675293 1087.05276123 -750.37350586 1086.04302246 -750.56591797 1085.00268555 C-751.18937636 1081.4056163 -751.73507383 1077.80131213 -752.25 1074.1875 C-752.37601593 1073.32218658 -752.50203186 1072.45687317 -752.63186646 1071.56533813 C-755.17446751 1053.62687547 -755.77888387 1035.85636616 -755.69683075 1017.77695084 C-755.68734867 1015.59009797 -755.68251054 1013.40326897 -755.67828369 1011.21640015 C-755.62367703 990.28834221 -755.0244245 969.83414406 -751.25 949.1875 C-750.91395198 947.21189268 -750.57791908 945.23628268 -750.24264526 943.26054382 C-741.57756715 892.72894094 -722.78209707 845.45682381 -695.45825195 802.14501953 C-694.22571501 800.21328871 -694.22571501 800.21328871 -693.25 798.1875 C-694.26748263 795.61288737 -694.26748263 795.61288737 -695.828125 792.66796875 C-696.4068335 791.51506348 -696.98554199 790.3621582 -697.58178711 789.17431641 C-697.89453583 788.55631165 -698.20728455 787.93830688 -698.5295105 787.30157471 C-721.1922432 742.31247638 -734.54960315 692.40875426 -738.25 642.1875 C-738.33459473 641.12474854 -738.33459473 641.12474854 -738.42089844 640.04052734 C-745.72625951 546.0866676 -719.14562424 449.49159998 -662.25 374.1875 C-661.77852539 373.56294922 -661.30705078 372.93839844 -660.82128906 372.29492188 C-655.6008398 365.42571468 -650.13199961 358.78529069 -644.5 352.25 C-643.98115234 351.64712158 -643.46230469 351.04424316 -642.92773438 350.4230957 C-639.70909573 346.73157893 -636.35481223 343.23178922 -632.84838867 339.81225586 C-631.23570779 338.17297203 -629.76881666 336.46610119 -628.3125 334.6875 C-625.56136223 331.40954862 -622.49944452 328.69528308 -619.2421875 325.9296875 C-617.37494265 324.29676357 -615.65737604 322.59820861 -613.9375 320.8125 C-609.86054964 316.68057953 -605.38469605 313.09183855 -600.85253906 309.47363281 C-599.16069809 308.11582991 -597.48223176 306.74260594 -595.8046875 305.3671875 C-581.55377877 293.73892177 -566.50927607 283.5854603 -550.91503906 273.859375 C-545.96323962 270.75293284 -541.04585737 267.59263796 -536.125 264.4375 C-535.07119141 263.76235352 -534.01738281 263.08720703 -532.93164062 262.39160156 C-530.77819804 261.01190957 -528.62487843 259.63202564 -526.47167969 258.25195312 C-521.23263306 254.89477078 -515.99121962 251.54128842 -510.75 248.1875 C-508.66665484 246.85418515 -506.58332152 245.5208518 -504.5 244.1875 C-425.33333333 193.52083333 -346.16666667 142.85416667 -267 92.1875 C-265.96834717 91.52717773 -264.93669434 90.86685547 -263.8737793 90.18652344 C-261.7947515 88.85607564 -259.7154879 87.52599622 -257.63598633 86.19628906 C-252.35976325 82.82182097 -247.0880575 79.44063427 -241.82421875 76.046875 C-178.52685728 35.27368515 -110.08619093 6.52988611 -34.25 1.1875 C-33.11916992 1.10282471 -31.98833984 1.01814941 -30.82324219 0.9309082 C-20.54236086 0.21572199 -10.30418932 -0.01412267 0 0 Z " fill="#FF3E00" transform="translate(755.25,-0.1875)"/>
<path d="M0 0 C0.86464874 -0.00340393 1.72929749 -0.00680786 2.62014771 -0.01031494 C14.22793904 -0.03646885 25.51001546 0.66742602 37 2.3125 C38.65781494 2.54731079 38.65781494 2.54731079 40.34912109 2.78686523 C52.13514251 4.53554701 63.66044985 6.59134327 75 10.3125 C76.77841564 10.86142342 78.55708489 11.40952552 80.3359375 11.95703125 C117.76054144 23.70812248 151.72371581 42.9843199 180.3359375 69.8359375 C182.51160937 71.8584829 184.72164473 73.78418264 187 75.6875 C232.01580861 114.92488183 261.16138034 178.29895882 265.85614014 237.13000488 C268.572181 278.33500671 260.9147234 314.31033885 248 353.3125 C242.50644458 350.31995797 237.52874736 346.89981849 232.5 343.1875 C218.13983655 332.72283488 203.34090314 323.27887261 188 314.3125 C187.26442871 313.879375 186.52885742 313.44625 185.77099609 313 C163.32914223 299.85629241 139.39862176 290.14580713 115 281.3125 C113.97922363 280.94189453 112.95844727 280.57128906 111.90673828 280.18945312 C109.17007924 279.2006653 106.43037398 278.22140194 103.6875 277.25 C102.91229004 276.97502686 102.13708008 276.70005371 101.33837891 276.41674805 C96.60712379 274.77408229 91.87471224 273.46370323 87 272.3125 C87.02094727 271.54808594 87.04189453 270.78367187 87.06347656 269.99609375 C87.68565597 248.79458991 87.68565597 248.79458991 83 228.3125 C82.56429687 227.09691406 82.12859375 225.88132812 81.6796875 224.62890625 C78.52221506 216.61444751 74.37235766 210.01386857 69 203.3125 C68.21625 202.260625 67.4325 201.20875 66.625 200.125 C54.47700349 187.10928946 36.04966528 177.31895353 18.1159668 176.11962891 C-2.97579714 175.54432853 -2.97579714 175.54432853 -23 181.3125 C-23.99902344 181.7353125 -24.99804688 182.158125 -26.02734375 182.59375 C-33.60339394 186.09195304 -40.49262445 190.73689388 -47.44140625 195.3203125 C-52.08669627 198.38369294 -56.7878663 201.353328 -61.5 204.3125 C-67.52696907 208.10520252 -73.52891472 211.93241275 -79.5 215.8125 C-85.47109663 219.69259462 -91.47349429 223.51904893 -97.5 227.3125 C-103.46263999 231.06628707 -109.40357997 234.84968983 -115.3125 238.6875 C-124.56323899 244.6945441 -133.87204173 250.60921664 -143.18261719 256.52294922 C-156.69837728 265.10791642 -170.19955497 273.71522179 -183.68286133 282.35107422 C-191.34335773 287.25611131 -199.01492454 292.143468 -206.69140625 297.0234375 C-214.69356926 302.1125829 -222.68055472 307.22527515 -230.66601562 312.34057617 C-237.60214536 316.78221791 -244.54807108 321.20813633 -251.5 325.625 C-257.85092913 329.66076773 -264.18831359 333.71562531 -270.5 337.8125 C-277.73432166 342.50825125 -285.0054928 347.14444353 -292.28515625 351.76953125 C-299.36608253 356.26937711 -306.43539543 360.78707818 -313.5 365.3125 C-320.43105217 369.75184104 -327.3647787 374.18677251 -334.31103516 378.60229492 C-336.09815925 379.73892142 -337.88429957 380.87709624 -339.66943359 382.0168457 C-344.59672431 385.16094768 -349.5411857 388.27381945 -354.5078125 391.35546875 C-376.49998817 405.07147125 -392.7006863 418.13765643 -399.7421875 444.04296875 C-404.11491377 464.31924056 -398.87339441 484.97044271 -388 502.3125 C-377.64885738 517.14765052 -363.23851703 527.78013872 -346 533.3125 C-345.07574219 533.61027344 -344.15148437 533.90804687 -343.19921875 534.21484375 C-329.2792737 538.05299886 -313.72348751 537.72422236 -300 533.3125 C-298.77410156 532.93351563 -297.54820312 532.55453125 -296.28515625 532.1640625 C-285.19921742 528.50182957 -275.73933427 522.64810745 -266 516.3125 C-264.61885602 515.42390935 -263.23735412 514.53587473 -261.85546875 513.6484375 C-259.07403054 511.85714885 -256.29908411 510.05625291 -253.52734375 508.25 C-248.47793874 504.96503365 -243.39658607 501.7309454 -238.3125 498.5 C-237.38381104 497.90968994 -236.45512207 497.31937988 -235.49829102 496.71118164 C-233.60478049 495.50794044 -231.71114387 494.30489764 -229.81738281 493.10205078 C-217.36515746 485.19262168 -204.92282495 477.2680366 -192.5 469.3125 C-189.35415188 467.29875955 -186.20815658 465.28524947 -183.06201172 463.27197266 C-181.0556624 461.98804987 -179.04947163 460.70387928 -177.04345703 459.41943359 C-152.17919805 443.50714999 -152.17919805 443.50714999 -140 436.3125 C-139.39768555 435.95494629 -138.79537109 435.59739258 -138.17480469 435.22900391 C-126.09478355 428.1547218 -113.05264749 423.27679308 -100 418.3125 C-99.29939453 418.03776855 -98.59878906 417.76303711 -97.87695312 417.47998047 C-89.02746767 414.02330035 -79.89927634 412.08382168 -70.625 410.125 C-69.44260742 409.87459961 -68.26021484 409.62419922 -67.04199219 409.36621094 C-51.1081233 406.14103178 -35.6073243 404.95960218 -19.375 405.0625 C-18.06372131 405.06715271 -18.06372131 405.06715271 -16.72595215 405.07189941 C8.07277023 405.17483623 32.14076929 407.12784151 55.91699219 414.65380859 C57.45696456 415.14078064 58.99972909 415.61894287 60.54394531 416.09228516 C98.99114947 427.93402404 133.87648704 447.18972802 163.25 474.75 C165.72679294 477.05792069 168.25228742 479.28576209 170.8125 481.5 C174.23881621 484.53262817 177.2682871 487.72571772 180.21484375 491.22265625 C181.42215083 492.6360245 182.66607871 494.01878467 183.94140625 495.37109375 C217.96472817 531.52478942 239.78757037 579.4827504 247 628.3125 C247.17901855 629.49505371 247.35803711 630.67760742 247.54248047 631.89599609 C249.02283532 642.5604781 249.35802077 653.05425474 249.3125 663.8125 C249.31100952 664.68624268 249.30951904 665.55998535 249.3079834 666.46020508 C249.24738126 686.27800789 247.45996201 705.21309265 242 724.3125 C241.71511719 725.41722656 241.43023438 726.52195312 241.13671875 727.66015625 C228.2177391 776.31974921 197.64382976 821.52887007 157 851.3125 C156.4519873 851.72129395 155.90397461 852.13008789 155.33935547 852.55126953 C146.0848718 859.44778391 136.38582427 865.58117934 126.59765625 871.68554688 C122.04835645 874.53484517 117.52561846 877.42579515 113 880.3125 C106.17567823 884.66021509 99.3440638 888.99592999 92.5 893.3125 C82.91565853 899.35824015 73.35589349 905.44229962 63.79833984 911.53027344 C59.19976236 914.45904814 54.59980285 917.38565036 50 920.3125 C49.09056641 920.89128906 48.18113281 921.47007812 47.24414062 922.06640625 C42.69855772 924.95934278 38.1525079 927.85154031 33.60546875 930.7421875 C23.89391531 936.91716368 14.1913537 943.1058621 4.5 949.3125 C-6.08262508 956.08993522 -16.67983164 962.84409109 -27.28515625 969.5859375 C-30.05544949 971.34776428 -32.82474226 973.11115362 -35.59375 974.875 C-44.15649432 980.32876812 -52.72391163 985.77450874 -61.3125 991.1875 C-69.73896849 996.49987771 -78.12980439 1001.86713205 -86.51733398 1007.24072266 C-100.92456885 1016.4700653 -115.36049872 1025.65347657 -129.83105469 1034.78320312 C-142.74591533 1042.93486984 -155.62372514 1051.14483107 -168.48242188 1059.38476562 C-171.66504587 1061.42311896 -174.85003322 1063.45774206 -178.03515625 1065.4921875 C-181.70027287 1067.83445435 -185.35449423 1070.19167419 -188.99609375 1072.5703125 C-216.02838494 1090.12649535 -248.51215451 1106.9917562 -280.953125 1111.0234375 C-283.06085866 1111.21053412 -283.06085866 1111.21053412 -285 1112.3125 C-287.26433416 1112.68744796 -289.5370179 1113.01253943 -291.8125 1113.3125 C-293.64748047 1113.56 -293.64748047 1113.56 -295.51953125 1113.8125 C-350.01645445 1120.19718237 -402.73929832 1111.45935585 -452 1087.3125 C-452.71446289 1086.96751465 -453.42892578 1086.6225293 -454.16503906 1086.26708984 C-474.27379781 1076.4763654 -493.15544613 1062.81220511 -509.5078125 1047.62109375 C-511.69709164 1045.59309379 -513.92299995 1043.63038817 -516.1875 1041.6875 C-523.04436821 1035.69470868 -529.03058736 1029.24992003 -534.7265625 1022.14453125 C-536.18018551 1020.33374657 -537.65254838 1018.53774711 -539.1484375 1016.76171875 C-583.68867294 963.77974193 -601.76730615 897.50462691 -596.5390625 829.11328125 C-595.24090024 815.81018943 -592.2701032 802.9959119 -588.75317383 790.12158203 C-587.94624751 787.11202151 -587.19416259 784.09187213 -586.44921875 781.06640625 C-585.36120388 776.68205409 -584.17041324 772.37036269 -582.8125 768.0625 C-582.29623047 766.41507813 -582.29623047 766.41507813 -581.76953125 764.734375 C-581.38861328 763.53554687 -581.38861328 763.53554687 -581 762.3125 C-576.93416105 764.1298068 -573.38829693 766.71486911 -569.75 769.25 C-568.69425781 769.97981079 -568.69425781 769.97981079 -567.6171875 770.72436523 C-564.72337134 772.72512759 -561.83355038 774.73155266 -558.94726562 776.74316406 C-544.0926318 787.09485061 -528.91343604 796.66871162 -513 805.3125 C-512.17709473 805.76351074 -511.35418945 806.21452148 -510.50634766 806.67919922 C-483.70822359 821.29860812 -455.42545161 833.06984361 -426.078125 841.49951172 C-420.09145082 843.22104918 -420.09145082 843.22104918 -419 844.3125 C-418.94893627 846.0526383 -418.96469982 847.79480281 -419.0078125 849.53515625 C-419.44818465 874.20878768 -416.74952258 896.57281811 -399 915.3125 C-398.43796875 915.94027344 -397.8759375 916.56804688 -397.296875 917.21484375 C-383.41772245 932.03440617 -362.64529555 941.00830717 -342.47021484 941.72998047 C-320.94793313 941.92966672 -303.1834508 933.70008676 -285.68115234 922.08105469 C-280.78313871 918.85020323 -275.82276914 915.71637702 -270.875 912.5625 C-268.74047236 911.19595748 -266.6063615 909.82876373 -264.47265625 908.4609375 C-249.4286725 898.81881249 -234.38038024 889.18379658 -219.30126953 879.59667969 C-208.18510642 872.5265684 -197.09351986 865.41806436 -186 858.3125 C-173.11334724 850.05840736 -160.22261592 841.81114311 -147.30786133 833.60107422 C-140.36346608 829.1846962 -133.43014773 824.75119585 -126.5 820.3125 C-118.67439704 815.30027332 -110.84257859 810.298124 -103 805.3125 C-90.98301647 797.67234741 -78.99119644 789.99303955 -67 782.3125 C-54.11334724 774.05840736 -41.22261592 765.81114311 -28.30786133 757.60107422 C-20.30729139 752.51300824 -12.32151251 747.40199118 -4.33837891 742.28662109 C1.70505438 738.41570678 7.75746232 734.5594966 13.81933594 730.7175293 C18.21937143 727.92596483 22.61076654 725.12100791 27 722.3125 C27.74024414 721.84086426 28.48048828 721.36922852 29.24316406 720.88330078 C48.7169746 708.43142702 62.2923251 693.91662457 67.5534668 670.89013672 C71.0301777 650.82063771 66.60152422 630.24450759 55.0859375 613.53515625 C53.14717118 611.02866353 51.1258921 608.66175037 49 606.3125 C48.32324219 605.54292969 47.64648438 604.77335938 46.94921875 603.98046875 C32.85204699 588.8524252 12.41574529 581.44807546 -7.83984375 580.046875 C-30.10614298 579.43384021 -48.5636968 588.5671791 -66.64404297 600.74414062 C-70.94656698 603.60832863 -75.32111353 606.35958351 -79.6875 609.125 C-81.57043612 610.32142006 -83.4532477 611.51803612 -85.3359375 612.71484375 C-86.74504395 613.60985596 -86.74504395 613.60985596 -88.18261719 614.52294922 C-104.81067387 625.08479111 -121.41210583 635.68770723 -138 646.3125 C-144.30328814 650.34984974 -150.60707203 654.38640448 -156.9140625 658.41796875 C-160.91400685 660.97515345 -164.90824038 663.54091729 -168.8984375 666.11328125 C-199.11120487 685.55364322 -229.74028376 698.95087974 -265 706.3125 C-265.76441406 706.48201172 -266.52882813 706.65152344 -267.31640625 706.82617188 C-281.87768579 709.94991882 -296.1800281 710.66042552 -311.02416992 710.62817383 C-314.03406603 710.6250297 -317.04295991 710.64851112 -320.05273438 710.67382812 C-358.45673374 710.79775052 -395.32846518 701.60913024 -430 685.3125 C-430.74427246 684.96719238 -431.48854492 684.62188477 -432.25537109 684.26611328 C-449.46470848 676.22762019 -465.06204203 665.99204872 -480 654.3125 C-480.91136719 653.61511719 -481.82273437 652.91773438 -482.76171875 652.19921875 C-489.88731189 646.65709075 -496.47098195 640.53593844 -503 634.3125 C-503.74564209 633.6019043 -503.74564209 633.6019043 -504.50634766 632.87695312 C-511.22944561 626.42314116 -517.26566013 619.65097996 -523 612.3125 C-523.99734772 611.06766978 -524.99474677 609.82288069 -525.9921875 608.578125 C-534.5999605 597.70955304 -541.98635437 586.26257914 -549 574.3125 C-549.39026367 573.65604492 -549.78052734 572.99958984 -550.18261719 572.32324219 C-560.30116287 555.1357033 -567.1162365 535.81717891 -572.359375 516.63964844 C-572.80704032 515.01344956 -573.27201752 513.39196153 -573.75 511.77441406 C-575.84623923 504.52448114 -577.07509567 497.27941956 -578.125 489.8125 C-578.29386719 488.66652344 -578.46273437 487.52054688 -578.63671875 486.33984375 C-583.78768462 450.68867054 -581.41798395 413.61575839 -570 379.3125 C-569.74524902 378.5277832 -569.49049805 377.74306641 -569.22802734 376.93457031 C-562.75002121 357.2690495 -553.64299104 338.43127001 -542 321.3125 C-541.59958496 320.71679199 -541.19916992 320.12108398 -540.78662109 319.50732422 C-517.02195218 284.37236667 -485.07568734 261.30500816 -449.74609375 238.953125 C-443.58584406 235.05571552 -437.44907574 231.12204012 -431.3125 227.1875 C-423.30519325 222.05701881 -415.28155942 216.95417205 -407.23486328 211.88574219 C-399.6248212 207.08702248 -392.0504773 202.23296239 -384.4753418 197.37939453 C-374.89680849 191.24299828 -365.30157916 185.13314126 -355.70166016 179.03027344 C-351.13353943 176.12576436 -346.56684923 173.21900771 -342 170.3125 C-340.16667337 169.1458228 -338.33334004 167.97915613 -336.5 166.8125 C-335.5925 166.235 -334.685 165.6575 -333.75 165.0625 C-279.66666667 130.64583333 -225.58333333 96.22916667 -171.5 61.8125 C-170.5920166 61.23459717 -169.6840332 60.65669434 -168.74853516 60.0612793 C-166.92043321 58.8981336 -165.09198415 57.73553329 -163.26318359 56.57348633 C-158.59677103 53.60739109 -153.93730843 50.63121609 -149.2890625 47.63671875 C-102.96454501 17.84218278 -55.50713391 0.05142743 0 0 Z " fill="#FFFEFE" transform="translate(765,164.6875)"/>
</svg>
